<svg xmlns="http://www.w3.org/2000/svg" xmlns:xlink="http://www.w3.org/1999/xlink" width="1339.6972045898438" height="525.6330871582031" viewBox="0 0 1339.6972045898438 525.6330871582031" fill="none">
<path d="M1149.63 405.633L1149.63 405.633C1149.63 409.353 1149.46 413.043 1149.12 416.673C1148.6 422.473 1147.66 428.153 1146.33 433.683C1133.7 486.423 1086.24 525.633 1029.63 525.633C1024.84 525.633 1020.12 525.353 1015.48 524.803C1007.77 523.903 1000.29 522.263 993.097 519.973C977.227 514.903 962.797 506.633 950.567 495.903C944.807 490.853 939.527 485.263 934.837 479.213C932.027 475.613 929.427 471.843 927.047 467.933C922.577 460.593 918.877 452.733 916.047 444.473C911.887 432.293 909.627 419.223 909.627 405.633C909.627 395.453 910.897 385.563 913.287 376.123C915.217 368.453 917.897 361.093 921.227 354.093C940.507 313.613 981.807 285.633 1029.63 285.633C1051 285.633 1071.06 291.213 1088.44 301.013C1092.08 303.053 1095.6 305.293 1098.99 307.693C1105.91 312.613 1112.29 318.233 1118 324.473C1120.85 327.553 1123.52 330.783 1126.02 334.153C1135.49 346.893 1142.49 361.573 1146.3 377.483C1147.07 380.663 1147.71 383.883 1148.22 387.153C1149.15 393.183 1149.63 399.353 1149.63 405.633Z"   fill="#B7D46A" >
</path>
<path d="M1073.29 402.733C1065.05 415.273 1057.35 428.143 1050.26 441.323C1046.39 448.543 1042.7 455.863 1039.2 463.273C1029.82 483.123 1021.85 503.653 1015.48 524.803C1007.77 523.903 1000.29 522.263 993.097 519.973C996.657 508.103 1000.73 496.383 1005.3 484.853C1007.75 478.673 1010.32 472.563 1013.03 466.503C1016.31 459.143 1019.79 451.883 1023.47 444.723C1030.7 430.633 1038.68 416.953 1047.43 403.753C1051.29 397.933 1055.29 392.203 1059.45 386.573C1059.98 385.843 1060.52 385.123 1061.06 384.403C1072.63 368.963 1085.28 354.433 1099.14 341.003C1105.19 335.143 1111.52 329.703 1118 324.473C1120.85 327.553 1123.52 330.783 1126.02 334.153L1126.02 334.153C1119.3 341.793 1112.84 349.653 1106.52 357.443C1098.89 366.843 1091.55 376.453 1084.56 386.283C1080.7 391.703 1076.94 397.183 1073.29 402.733Z"   fill="#D3F09C" >
</path>
<path d="M986.007 398.063C990.647 392.043 995.417 386.133 1000.33 380.323C1004.98 374.813 1009.74 369.393 1014.63 364.083C1028.72 348.763 1044.05 334.583 1060.26 321.533C1068.22 315.123 1076.39 308.953 1084.9 303.293C1086.07 302.513 1087.25 301.763 1088.44 301.013C1092.08 303.053 1095.6 305.293 1098.99 307.693L1098.99 307.693C1095.76 310.733 1092.56 313.803 1089.33 316.813C1081.16 324.423 1072.85 331.873 1064.89 339.723C1050.53 353.873 1036.79 368.593 1023.81 383.963C1018.93 389.733 1014.17 395.593 1009.52 401.553C1002.16 410.973 995.097 420.633 988.357 430.543C984.597 436.073 980.947 441.673 977.407 447.343C972.937 454.493 968.637 461.743 964.527 469.103C962.017 473.603 959.567 478.133 957.197 482.703C954.927 487.073 952.707 491.473 950.567 495.903C944.807 490.853 939.527 485.263 934.837 479.213C936.617 475.673 938.447 472.163 940.317 468.673C941.007 467.383 941.707 466.093 942.407 464.803C945.677 458.823 949.067 452.903 952.577 447.063C962.757 430.083 973.927 413.733 986.007 398.063Z"   fill="#D3F09C" >
</path>
<path d="M1339.27 490.641C1341.44 485.236 1334.85 478.716 1329.47 480.838L1329.47 480.838C1326.39 482.054 1325.83 481.807 1323.26 482.171C1322.68 482.253 1321.95 482.431 1321.28 482.533C1321.11 482.518 1320.77 482.498 1320.18 482.468C1320.19 482.468 1319.66 482.425 1319.31 482.405C1318.89 482.305 1318.01 482.123 1317.88 482.084C1313.56 480.829 1309.73 478.385 1306.39 474.592C1305.25 473.31 1303.77 470.751 1302.55 468.119C1301.11 465.001 1300.02 461.719 1298.94 458.458C1296.43 450.856 1294.16 443.226 1290.82 435.929C1278.76 409.609 1246.97 395.762 1219.52 405.13C1193.67 413.951 1178.66 437.301 1162.19 457.419C1145.69 477.586 1124.1 491.448 1100.26 501.56C1075.71 511.969 1048.96 519.009 1022.17 518.768C1019.75 518.746 1019.76 522.446 1022.17 522.518C1045.18 523.202 1069 519.347 1091.11 513.175C1116.61 506.057 1141.29 494.821 1161.84 477.931C1171.99 469.589 1180.9 459.645 1189.77 449.995C1198.23 440.803 1207.25 431.568 1218.72 426.204C1229.08 421.361 1241.06 421.393 1251.4 426.341C1263.6 432.18 1269.62 442.453 1273.43 455.024C1278.5 471.769 1283.01 488.513 1298.52 498.628C1304.67 502.64 1312.81 505.112 1320.18 504.61C1329.63 503.969 1335.79 499.342 1339.27 490.641Z"   fill="#C7E673" >
</path>
<path d="M1023.81 383.963C1034.97 385.323 1046.23 386.163 1057.57 386.523C1058.2 386.543 1058.83 386.563 1059.45 386.573C1067.82 386.793 1076.2 386.693 1084.56 386.283C1094.05 385.813 1103.52 384.943 1112.94 383.673C1122.14 382.443 1131.32 380.753 1140.4 378.823C1142.38 378.403 1144.35 377.963 1146.3 377.483C1147.07 380.663 1147.71 383.883 1148.22 387.153L1148.22 387.153C1136.35 391.883 1123.6 394.823 1111.4 397.333C1098.76 399.943 1086.05 401.733 1073.29 402.733C1064.69 403.433 1056.06 403.763 1047.43 403.753C1034.79 403.743 1022.13 402.993 1009.52 401.553C1004.23 400.953 998.947 400.223 993.677 399.383C991.117 398.973 988.557 398.533 986.007 398.063C969.477 395.023 953.167 390.763 937.277 385.273C929.347 382.533 921.237 379.533 913.287 376.123C915.217 368.453 917.897 361.093 921.227 354.093C930.437 358.533 939.757 362.763 949.487 366.323C966.137 372.433 983.107 377.043 1000.33 380.323C1008.1 381.803 1015.93 383.013 1023.81 383.963Z"   fill="#D3F09C" >
</path>
<path d="M977.407 447.343C992.787 447.153 1008.16 446.283 1023.47 444.723C1032.42 443.823 1041.35 442.693 1050.26 441.323C1052.93 440.923 1055.6 440.493 1058.26 440.043C1080.2 436.333 1101.77 431.043 1123.15 424.913C1131.89 422.403 1140.48 419.493 1149.12 416.673L1149.12 416.673C1148.6 422.473 1147.66 428.153 1146.33 433.683C1137.98 437.183 1129.52 440.393 1120.98 443.393C1094.6 452.663 1067.05 459.123 1039.2 463.273C1030.5 464.573 1021.77 465.643 1013.03 466.503C1003.71 467.423 994.387 468.093 985.097 468.543C978.247 468.883 971.387 469.073 964.527 469.103C956.457 469.163 948.377 469.023 940.317 468.673C935.887 468.493 931.467 468.243 927.047 467.933C922.577 460.593 918.877 452.733 916.047 444.473C919.207 444.813 922.367 445.123 925.527 445.403C934.537 446.193 943.557 446.753 952.577 447.063C960.847 447.363 969.127 447.453 977.407 447.343Z"   fill="#D3F09C" >
</path>
<g style="mix-blend-mode:multiply" opacity="0.51">
<path d="M1148.05 423.737C1142.62 476.266 1094.44 525.633 1029.63 525.633C963.357 525.633 909.627 471.903 909.627 405.633C909.627 353.253 943.197 308.703 989.997 292.333C976.527 309.263 968.487 330.693 968.487 354.013C968.487 408.783 1012.89 453.193 1067.67 453.193C1101.67 453.193 1130.19 449.827 1148.05 423.737L1148.05 423.737Z"  style="mix-blend-mode:multiply" fill="#D4E092" >
</path>
</g>
<path d="M462.627 409.633C462.627 409.633 464.627 462.633 496.627 474.633C528.627 486.633 542.627 494.633 542.627 494.633L545.627 506.633C545.627 506.633 456.627 515.633 439.627 509.633C422.627 503.633 349.627 432.633 348.627 409.633C347.627 386.633 462.627 409.633 462.627 409.633L462.627 409.633Z"   fill="#F2AC50" >
</path>
<path d="M768.627 240.633C830.107 254.443 916.867 294.023 964.647 317.183C986.047 327.553 999.627 334.633 999.627 334.633L999.627 334.633L974.844 378.454C934.768 368.265 896.627 357.633 896.627 357.633C818.157 414.643 728.177 436.563 645.967 441.573C621.487 443.063 597.697 443.053 575.097 442.033C468.557 437.183 388.627 409.633 388.627 409.633C340.627 452.633 302.627 477.633 302.627 477.633L276.627 492.633L256.627 472.633C246.087 456.813 242.657 436.193 242.937 415.263C242.987 411.413 243.167 407.553 243.457 403.703C246.607 361.083 262.627 320.633 262.627 320.633C262.627 320.633 259.627 200.633 265.627 172.633C267.167 165.443 273.917 156.073 284.277 145.943C296.427 134.033 313.557 121.063 333.047 109.303C346.237 101.343 360.507 93.943 375.057 87.803C391.967 80.673 409.247 75.243 425.627 72.633C432.367 71.563 439.147 71.403 445.957 72.013C475.167 74.643 504.987 91.453 535.047 111.063C565.677 131.033 596.557 153.903 627.317 167.643C631.427 169.483 635.527 171.153 639.627 172.633C711.627 198.633 730.987 146.423 730.987 146.423L782.627 197.633L768.627 240.633Z"   fill="#FFBE69" >
</path>
<path d="M625.627 423.633C625.627 423.633 701.627 500.633 710.627 506.633C719.627 512.633 762.627 506.633 762.627 506.633C762.627 506.633 777.627 431.633 805.627 397.633C833.627 363.633 625.627 423.633 625.627 423.633L625.627 423.633Z"   fill="#F2AC50" >
</path>
<path d="M5.93701 286.403C16.327 248.493 41.087 207.943 85.627 169.633C222.487 51.913 324.547 104.563 333.047 109.303C333.437 109.513 333.627 109.633 333.627 109.633C333.627 109.633 371.627 189.633 285.267 146.423L285.267 146.423C284.937 146.253 284.607 146.093 284.277 145.943C257.077 132.783 227.767 137.083 200.377 151.303C140.967 182.123 90.627 259.583 90.627 306.633C90.627 309.183 90.747 311.543 90.987 313.723C90.817 313.793 90.637 313.853 90.467 313.923C75.927 319.553 63.327 320.653 52.547 319.003C28.197 315.263 13.147 297.523 5.93701 286.403Z"   fill="#FFBE69" >
</path>
<path d="M896.627 357.633C887.297 364.413 877.807 370.693 868.187 376.503C767.747 437.213 653.117 447.233 561.117 441.253C461.637 434.793 388.627 409.633 388.627 409.633C388.627 409.633 448.627 352.633 514.627 323.633C580.627 294.633 775.627 306.633 896.627 357.633L896.627 357.633Z"   fill="#FFE8C2" >
</path>
<path d="M763.457 514.403C760.777 516.123 756.147 518.093 748.627 518.633C734.627 519.633 701.457 520.953 706.547 504.793C706.547 504.793 752.717 482.613 767.677 477.623C782.627 472.633 802.627 501.633 801.627 508.633L801.627 508.633C800.627 515.633 778.627 519.633 772.627 515.633C772.127 515.303 771.667 514.993 771.247 514.723L766.627 511.633C766.627 511.633 765.767 512.923 763.457 514.403Z"   fill="#F9EBD9" >
</path>
<g style="mix-blend-mode:multiply" opacity="0.17">
<path d="M375.057 87.803C351.287 132.953 353.107 201.993 414.467 301.703C479.677 407.663 577.487 438.223 577.487 438.223L577.487 438.223L575.097 442.033C468.557 437.183 388.627 409.633 388.627 409.633C340.627 452.633 302.627 477.633 302.627 477.633L276.627 492.633L256.627 472.633C246.087 456.813 242.657 436.193 242.937 415.263C242.987 411.413 243.167 407.553 243.457 403.703C246.607 361.083 262.627 320.633 262.627 320.633C262.627 320.633 259.627 200.633 265.627 172.633C267.167 165.443 273.917 156.073 284.277 145.943C296.427 134.033 313.557 121.063 333.047 109.303C346.237 101.343 360.507 93.943 375.057 87.803Z"  style="mix-blend-mode:multiply" fill="#DB8042" >
</path>
</g>
<path d="M309.627 444.633C334.627 451.633 355.627 498.633 350.627 504.633L350.627 504.633C349.577 505.893 345.197 506.883 338.907 507.663C336.677 507.953 334.197 508.203 331.547 508.433C321.667 509.293 309.347 509.813 297.987 510.133C295.307 510.203 292.677 510.273 290.147 510.323C275.827 510.633 264.627 510.633 264.627 510.633C264.627 510.633 253.627 488.633 251.627 466.633C251.627 466.633 284.627 437.633 309.627 444.633Z"   fill="#F9EBD9" >
</path>
<path d="M1008.76 325.883C1011.19 327.213 1012.63 328.633 1012.63 328.633C1012.63 328.633 1015.81 326.513 1019.83 324.913C1024.54 323.023 1030.39 321.853 1033.63 325.633C1038.54 331.363 1037.42 337.753 1036.86 339.893C1036.73 340.363 1036.63 340.633 1036.63 340.633C1036.63 340.633 1039.79 343.003 1041.78 346.393C1043.68 349.603 1044.53 353.733 1040.63 357.633L1040.63 357.633C1032.63 365.633 998.627 385.633 982.627 383.633C966.627 381.633 957.863 374.379 957.863 374.379C981.463 367.689 989.107 328.193 989.107 328.193C997.077 321.523 1004.46 323.553 1008.76 325.883Z"   fill="#F9EBD9" >
</path>
<path d="M885.627 72.633L795.527 91.813C795.527 91.813 795.577 91.503 795.677 90.923C796.527 86.253 800.887 63.813 810.617 42.073C813.957 34.593 817.937 27.193 822.627 20.633C835.067 3.22303 856.397 27.573 870.747 48.493C878.377 59.603 884.047 69.743 885.347 72.113C885.527 72.453 885.627 72.633 885.627 72.633L885.627 72.633Z"   fill="#F5AE51" >
</path>
<g style="mix-blend-mode:multiply" opacity="0.28">
<path d="M964.647 317.183C963.757 317.233 962.857 317.283 961.937 317.323C818.637 323.503 683.937 218.593 627.317 167.643C631.427 169.483 635.527 171.153 639.627 172.633C711.627 198.633 730.987 146.423 730.987 146.423L782.627 197.633L768.627 240.633C830.107 254.443 916.867 294.023 964.647 317.183L964.647 317.183Z"  style="mix-blend-mode:multiply" fill="#DB8042" >
</path>
</g>
<path d="M1008.13 120.703C1008.63 140.633 948.127 80.703 948.127 80.703C948.127 80.703 954.137 70.473 961.547 61.713C966.407 55.953 971.867 50.823 976.627 49.633C985.287 47.473 997.587 75.053 1003.96 98.073C1006.42 106.953 1007.99 115.153 1008.13 120.703L1008.13 120.703Z"   fill="#F5AE51" >
</path>
<path d="M822.014 71.435C822.014 71.435 824.731 37.473 836.957 34.756C849.183 32.039 864.127 64.643 864.127 64.643L822.014 71.435L822.014 71.435Z"   fill="#FFF2DB" >
</path>
<path d="M964.655 86.379C964.655 86.379 967.372 63.284 978.24 64.643C989.108 66.001 995.9 109.473 995.9 109.473L964.655 86.379L964.655 86.379Z"   fill="#FFF2DB" >
</path>
<g style="mix-blend-mode:multiply" opacity="0.28">
<path d="M885.347 72.113L795.677 90.923C796.527 86.253 800.887 63.813 810.617 42.073C820.827 45.693 845.517 52.863 870.747 48.493C878.377 59.603 884.047 69.743 885.347 72.113L885.347 72.113Z"  style="mix-blend-mode:multiply" fill="#DB8042" >
</path>
</g>
<g style="mix-blend-mode:multiply" opacity="0.28">
<path d="M1008.13 120.703C1008.63 140.633 948.127 80.703 948.127 80.703C948.127 80.703 954.137 70.473 961.547 61.713C966.507 68.933 982.307 89.833 1003.96 98.073C1006.42 106.953 1007.99 115.153 1008.13 120.703L1008.13 120.703Z"  style="mix-blend-mode:multiply" fill="#DB8042" >
</path>
</g>
<path d="M730.995 184.869C720.597 160.953 718.35 129.102 719.627 114.633C719.627 114.633 810.627 48.633 896.627 60.633C982.627 72.633 1028.63 129.633 1048.63 183.633C1048.63 183.633 1023.63 264.633 945.627 292.633C920.71 301.578 881.946 299.159 856.655 292.19C797.939 276.011 755.278 240.724 730.995 184.869L730.995 184.869Z"   fill="#FFBE69" >
</path>
<path d="M856.995 144.454C856.995 144.454 852.58 137.322 858.014 117.284C863.448 97.247 877.372 94.53 884.844 96.907C892.315 99.284 904.882 110.832 900.806 129.85C896.731 148.869 856.995 144.454 856.995 144.454L856.995 144.454Z"   fill="#EBA152" >
</path>
<path d="M966.425 129.171C970.653 118.95 979.693 114.05 985.395 121.537C992.207 130.483 983.307 151.124 981.41 162.907C981.035 165.234 989.355 160.19 991.397 154.53C996.061 141.598 994.601 125.402 986.161 116.523C978.734 108.71 968.478 111.225 964.018 123.11C963.52 124.436 961.491 132.961 962.028 131.662L966.425 129.171L966.425 129.171Z"   fill="#EBA152" >
</path>
<path d="M856.259 133.454C856.259 133.454 857.259 117.454 867.259 106.454C877.259 95.454 897.259 98.454 900.259 121.454C903.259 144.454 891.259 155.454 881.259 159.454C871.259 163.454 854.259 154.454 856.259 133.454L856.259 133.454Z"   fill="#FFF2DB" >
</path>
<path d="M963.599 127.813C966.007 122.996 972.599 114.813 979.599 116.813C986.599 118.813 991.599 128.813 991.599 143.813C991.599 158.813 979.599 167.813 971.599 166.813C963.599 165.813 952.599 149.813 963.599 127.813L963.599 127.813Z"   fill="#FFF2DB" >
</path>
<path d="M933.617 155.883C933.617 155.883 921.987 149.213 915.297 141.543C912.287 138.103 910.277 134.473 910.747 131.143C912.277 120.403 928.997 125.523 933.027 132.653C933.027 132.653 940.737 126.923 948.417 128.343C949.297 128.503 950.187 128.763 951.067 129.133C959.507 132.743 958.267 142.343 933.617 155.883L933.617 155.883Z"   fill="#805A28" >
</path>
<path d="M872.759 137.954C872.759 127.756 881.759 116.954 891.759 123.954C901.759 130.954 892.759 153.954 882.759 153.954C872.759 153.954 872.759 144.954 872.759 137.954L872.759 137.954Z"   fill="#4C310D" >
</path>
<path d="M963.099 142.313C964.062 134.123 970.099 129.313 977.099 132.313C984.099 135.313 985.099 152.313 979.099 158.313C973.099 164.313 961.099 159.313 963.099 142.313L963.099 142.313Z"   fill="#4C310D" >
</path>
<path d="M931.383 144.725C931.184 158.553 930.691 172.682 928.467 186.347C926.211 200.209 921.618 212.599 914.883 224.861C913.551 227.285 917.053 229.29 918.566 227.014C934.257 203.397 935.554 172.035 933.914 144.725C933.817 143.111 931.407 143.082 931.383 144.725L931.383 144.725Z"   fill="#805A28" >
</path>
<path d="M771.247 514.723L766.627 511.633C766.627 511.633 765.767 512.923 763.457 514.403C761.767 507.343 760.787 500.103 759.077 493.063C758.347 490.043 762.857 488.803 763.737 491.783C765.987 499.483 769.167 506.963 771.247 514.723L771.247 514.723Z"   fill="#E8D4BE" >
</path>
<path d="M899.475 207.972C899.255 219.381 907.581 230.031 919.224 231.41C930.446 232.738 942.197 224.549 944.335 213.334C944.995 209.87 940.061 208.421 939.001 211.864C936.479 220.055 929.013 226.573 920.015 225.558C911.371 224.582 904.491 216.527 904.115 207.972C903.985 204.998 899.532 204.971 899.475 207.972L899.475 207.972Z"   fill="#805A28" >
</path>
<path d="M338.907 507.663C336.677 507.953 334.197 508.203 331.547 508.433C328.787 491.903 323.397 475.053 315.367 460.713C314.107 458.463 317.457 456.523 318.807 458.703C324.477 467.883 329.757 476.863 333.397 487.083C335.787 493.813 337.577 500.683 338.907 507.663L338.907 507.663Z"   fill="#E8D4BE" >
</path>
<path d="M290.007 509.303C289.227 504.383 288.327 499.483 287.287 494.613C285.237 484.913 283.107 475.143 279.957 465.733C279.107 463.203 282.977 462.233 283.887 464.643C287.507 474.283 291.247 483.793 293.977 493.733C295.367 498.823 296.627 503.943 297.747 509.103C297.817 509.443 297.897 509.793 297.987 510.133L297.987 510.133C295.307 510.203 292.677 510.273 290.147 510.323C290.107 509.973 290.057 509.633 290.007 509.303Z"   fill="#E8D4BE" >
</path>
<path d="M1041.78 346.393C1038.26 348.133 1033.98 348.943 1030.46 350.203C1024.43 352.363 1017.96 354.033 1012.22 356.843C1010.23 357.823 1008.5 354.943 1010.47 353.853C1016.06 350.753 1021.15 347.023 1026.99 344.313C1029.87 342.983 1033.37 341.033 1036.86 339.893C1036.73 340.363 1036.63 340.633 1036.63 340.633C1036.63 340.633 1039.79 343.003 1041.78 346.393L1041.78 346.393Z"   fill="#E8D4BE" >
</path>
<path d="M1019.83 324.913C1018.63 327.203 1016.84 329.293 1015.37 331.333C1012.54 335.253 1008.87 338.503 1006.15 342.463C1004.59 344.733 1001.08 342.743 1002.43 340.283C1004.72 336.093 1005.95 331.373 1008.15 327.113C1008.36 326.713 1008.56 326.303 1008.76 325.883C1011.19 327.213 1012.63 328.633 1012.63 328.633C1012.63 328.633 1015.81 326.513 1019.83 324.913L1019.83 324.913Z"   fill="#E8D4BE" >
</path>
<path d="M539.387 511.393C533.757 512.263 527.587 512.603 524.507 512.263C524.507 512.263 521.197 512.413 515.907 512.643C513.187 512.763 509.937 512.903 506.347 513.053C491.057 513.703 469.557 514.583 455.897 514.983C432.807 515.663 424.657 500.713 424.657 500.713C424.657 500.713 474.237 476.263 490.547 472.193C506.847 468.113 537.407 482.383 542.847 487.133C548.277 491.883 553.037 504.113 550.997 507.513L550.997 507.513C550.607 508.163 549.597 508.773 548.197 509.313C545.987 510.173 542.787 510.873 539.387 511.393Z"   fill="#F9EBD9" >
</path>
<path d="M548.197 509.313C545.987 510.173 542.787 510.873 539.387 511.393C537.617 508.423 535.547 505.613 533.267 503.013C527.477 496.423 519.987 490.883 511.707 487.853C508.997 486.863 510.047 482.703 512.917 483.473C522.657 486.093 531.307 490.633 538.607 497.673C541.617 500.573 545.387 504.753 548.197 509.313L548.197 509.313Z"   fill="#E8D4BE" >
</path>
<path d="M515.907 512.643C513.187 512.763 509.937 512.903 506.347 513.053C505.727 512.003 505.077 510.963 504.397 509.953C499.947 503.353 493.747 497.303 486.607 493.723C484.127 492.483 485.937 488.163 488.507 489.223C497.027 492.763 504.397 497.273 510.247 504.533C511.857 506.533 514.037 509.433 515.907 512.643L515.907 512.643Z"   fill="#E8D4BE" >
</path>
<path d="M719.627 114.633C719.627 114.633 697.032 128.38 697.032 136.643C697.032 150.228 714.693 148.869 714.693 148.869C714.693 148.869 698.618 162.455 709.712 175.133C719.221 186.001 754.995 172.416 754.995 172.416L740.504 121.699L719.627 114.633L719.627 114.633Z"   fill="#FFBE69" >
</path>
<path d="M1048.63 183.633C1048.63 183.633 1065.18 210.001 1055.67 218.152C1046.17 226.303 1039.37 216.794 1039.37 216.794C1039.37 216.794 1050.24 234.454 1036.66 238.53C1023.07 242.605 1008.13 218.152 1008.13 218.152L1048.63 183.633L1048.63 183.633Z"   fill="#FFBE69" >
</path>
<circle cx="968.7306518554688" cy="133.81272888183594" r="5"   fill="#FFF2DB" >
</circle>
<circle cx="880.0890502929688" cy="124.52963256835938" r="5"   fill="#FFF2DB" >
</circle>
<circle cx="867.9004516601562" cy="174.68063354492188" r="3"   fill="#DE9F5B" >
</circle>
<circle cx="891.2968139648438" cy="179.43533325195312" r="3"   fill="#DE9F5B" >
</circle>
<circle cx="887.2212524414062" cy="197.77493286132812" r="3"   fill="#DE9F5B" >
</circle>
<circle cx="857.6173706054688" cy="185.54852294921875" r="3"   fill="#DE9F5B" >
</circle>
<circle cx="866.8438110351562" cy="201.17123413085938" r="3"   fill="#DE9F5B" >
</circle>
<circle cx="972.4664916992188" cy="184.4730224609375" r="3"   fill="#DE9F5B" >
</circle>
<circle cx="971.4475708007812" cy="203.20892333984375" r="3"   fill="#DE9F5B" >
</circle>
<circle cx="983.6740112304688" cy="195.51083374023438" r="3"   fill="#DE9F5B" >
</circle>
<circle cx="997.9381713867188" cy="185.54852294921875" r="3"   fill="#DE9F5B" >
</circle>
<circle cx="1002.6929321289062" cy="200.49191284179688" r="3"   fill="#DE9F5B" >
</circle>
<path d="M52.547 319.003C63.327 320.653 75.927 319.553 90.467 313.923C90.637 313.853 90.817 313.793 90.987 313.723C97.107 370.663 180.367 307.483 199.627 329.633C212.007 343.863 199.107 388.353 167.327 418.303L167.327 418.303C147.757 436.753 121.027 449.683 88.627 446.633C74.467 445.303 60.977 440.143 48.987 431.883C24.547 415.093 6.32704 385.483 1.35704 349.373C-1.32296 329.943 -0.152959 308.623 5.93704 286.403C13.147 297.523 28.197 315.263 52.547 319.003Z"   fill="#FFF2DB" >
</path>
<path d="M47.674 427.36C47.674 427.36 55.825 450.454 43.599 451.813C31.372 453.171 -1.23198 377.096 1.48502 347.209C4.20203 317.322 40.882 379.813 40.882 379.813L47.674 427.36L47.674 427.36Z"   fill="#FFF2DB" >
</path>
<ellipse cx="411.2384605407715" cy="161.59870147705078" transform="rotate(-12.118302872922625 379.67681884765625 131.54708862304688)" rx="31.561641693115234" ry="30.051612854003906"   fill="#FFE8C2" >
</ellipse>
<path d="M535.047 111.063C529.027 125.353 515.947 136.723 499.097 140.343C472.327 146.093 446.187 130.083 440.717 104.593C438.247 93.113 440.397 81.663 445.957 72.013C475.167 74.643 504.987 91.453 535.047 111.063L535.047 111.063Z"   fill="#FFE8C2" >
</path>
<ellipse cx="466.7116813659668" cy="206.7686939239502" transform="rotate(-41.08963876463962 452.81378173828125 192.17242431640625)" rx="13.897899627685547" ry="14.596269607543945"   fill="#FFE8C2" >
</ellipse>
<path d="M776.665 151.517C773.771 156.79 775.914 163.528 781.453 166.568C786.991 169.608 793.826 167.797 796.72 162.524C799.615 157.251 797.471 150.512 791.933 147.472C786.395 144.433 779.559 146.243 776.665 151.517L776.665 151.517Z"   fill="#FFE8C2" >
</path>
<path d="M805.427 148.48C803.428 152.123 804.909 156.778 808.735 158.878C812.561 160.978 817.283 159.727 819.282 156.084C821.282 152.441 819.801 147.786 815.975 145.686C812.149 143.586 807.427 144.837 805.427 148.48L805.427 148.48Z"   fill="#FFE8C2" >
</path>
<path d="M799.48 169.569C798.131 172.027 799.13 175.168 801.712 176.585C804.293 178.002 807.479 177.158 808.829 174.7C810.178 172.242 809.178 169.101 806.597 167.684C804.015 166.267 800.829 167.111 799.48 169.569L799.48 169.569Z"   fill="#FFE8C2" >
</path>
<g style="mix-blend-mode:multiply" opacity="0.4">
<path d="M933.617 155.883C933.617 155.883 921.987 149.213 915.297 141.543C918.977 143.613 929.587 148.133 940.207 139.363C945.427 135.043 947.647 131.293 948.417 128.343C949.297 128.503 950.187 128.763 951.067 129.133C959.507 132.743 958.267 142.343 933.617 155.883L933.617 155.883Z"  style="mix-blend-mode:multiply" fill="#B06D3F" >
</path>
</g>
<path d="M915.119 130.196C914.561 128.276 917.002 125.458 921.741 127.341C926.479 129.224 927.727 133.519 925.4 135.127C923.073 136.734 916.367 134.491 915.119 130.196L915.119 130.196Z"   fill="#DEAF71" >
</path>
<path d="M928.542 135.737C929.174 134.472 931.542 133.737 933.542 135.737C935.542 137.737 933.542 139.737 931.542 139.737C929.542 139.737 927.542 137.737 928.542 135.737L928.542 135.737Z"   fill="#DEAF71" >
</path>
<path d="M883.486 19.207C885.294 24.653 886.677 30.211 887.855 35.824C890.196 46.986 892.305 59.374 891.402 70.802C891.293 72.186 893.646 72.53 893.853 71.134L893.853 71.134C895.731 58.445 897.484 46.717 895.899 33.828C895.154 27.764 893.87 21.742 892.179 15.871C890.634 10.508 889.051 3.94403 884.327 0.576029C881.945 -1.12197 879.454 1.25503 879.155 3.54403C878.489 8.65302 881.893 14.408 883.486 19.207Z"   fill="#805A28" >
</path>
<path d="M878.246 71.435C878.231 61.504 877.435 52.421 874.311 42.906C871.865 35.455 868.46 23.777 860.452 20.761C858.698 20.1 856.979 21.781 856.935 23.439C856.823 27.691 859.223 30.942 861.259 34.501C863.386 38.22 865.448 41.995 867.235 45.89C870.948 53.981 874.334 62.991 876.165 71.717C876.413 72.901 878.247 72.612 878.246 71.435L878.246 71.435Z"   fill="#805A28" >
</path>
<path d="M957.908 84.577C960.584 75.256 963.806 65.64 970.101 58.092C975.397 51.743 983.943 47.461 988.117 40.381C989.41 38.189 987.233 34.893 984.623 35.837C976.398 38.811 969.451 47.899 964.804 55.024C959.061 63.831 957.195 73.697 955.196 83.829C954.849 85.588 957.403 86.336 957.908 84.577L957.908 84.577Z"   fill="#805A28" >
</path>
<path d="M948.312 81.398C948.763 73.771 950.365 66.115 952.694 58.84C954.7 52.572 958.986 46.453 959.644 39.879C959.806 38.26 957.735 37.819 956.723 38.67C951.467 43.092 949.619 52.14 948.177 58.53C946.464 66.117 946.054 73.64 946.249 81.398C946.283 82.733 948.233 82.718 948.312 81.398L948.312 81.398Z"   fill="#805A28" >
</path>
<path d="M999.867 117.803C995.553 120.028 981.004 111.524 981.651 106.298C981.884 104.437 982.303 102.625 983.007 101.165C984.354 98.365 986.751 96.841 990.858 98.658C993.879 99.995 997.08 103.974 999.108 107.986C1001.29 112.299 1002.1 116.649 999.867 117.803L999.867 117.803Z"   fill="#805A28" >
</path>
<g style="mix-blend-mode:multiply" opacity="0.4">
<path d="M999.867 117.803C995.553 120.028 981.004 111.524 981.651 106.298C981.884 104.437 982.303 102.625 983.007 101.165C984.768 103.674 991.418 112.142 998.583 108.25C998.759 108.155 998.941 108.064 999.108 107.986C1001.29 112.299 1002.1 116.649 999.867 117.803L999.867 117.803Z"  style="mix-blend-mode:multiply" fill="#B06D3F" >
</path>
</g>
<path d="M850.741 98.606C855.674 101.151 872.309 91.427 871.569 85.452C871.303 83.324 870.824 81.251 870.019 79.583C868.478 76.38 865.738 74.639 861.042 76.716C857.588 78.245 853.929 82.795 851.609 87.382C849.118 92.313 848.187 97.286 850.741 98.606L850.741 98.606Z"   fill="#805A28" >
</path>
<g style="mix-blend-mode:multiply" opacity="0.4">
<path d="M850.741 98.606C855.674 101.151 872.309 91.427 871.569 85.452C871.303 83.324 870.824 81.251 870.019 79.583C868.005 82.451 860.402 92.134 852.209 87.684C852.009 87.575 851.801 87.47 851.609 87.382C849.118 92.313 848.187 97.286 850.741 98.606L850.741 98.606Z"  style="mix-blend-mode:multiply" fill="#B06D3F" >
</path>
</g>
<path d="M865.945 160.116C860.779 158.514 855.627 157.153 850.259 156.426C845.602 155.796 840.099 154.709 835.924 157.323C833.623 158.765 833.84 162.702 836.714 163.364C841.113 164.376 845.461 162.482 849.883 162.031C854.974 161.513 860.161 161.901 865.123 163.1C867.061 163.568 867.848 160.707 865.945 160.116L865.945 160.116Z"   fill="#EBA152" >
</path>
<path d="M858.255 164.952C855.927 165.401 853.591 165.785 851.262 166.229C848.964 166.668 846.348 167.006 844.766 168.872C842.509 171.535 844.722 174.849 847.982 174.395C850.095 174.101 851.636 172.346 853.348 171.177C855.205 169.909 857.032 168.983 859.177 168.297C861.321 167.611 860.436 164.531 858.255 164.952L858.255 164.952Z"   fill="#EBA152" >
</path>
<path d="M975.144 172.37C981.626 171.016 988.497 170.952 995.099 171.277C1001.19 171.577 1007.58 173.728 1013.59 173.346C1016.23 173.179 1017.78 169.346 1015.05 167.974C1009.29 165.09 1001.38 165.492 995.099 165.916C987.979 166.396 981.361 168.208 974.533 170.156C973.102 170.564 973.704 172.671 975.144 172.37L975.144 172.37Z"   fill="#EBA152" >
</path>
<g style="mix-blend-mode:multiply" opacity="0.28">
<path d="M167.327 418.303C116.717 433.133 55.147 382.183 52.5471 319.003C51.707 298.953 56.8071 277.673 70.0871 256.873C124.937 170.933 187.997 153.903 200.377 151.303C140.967 182.123 90.6271 259.583 90.6271 306.633C90.6271 309.183 90.7471 311.543 90.9871 313.723C97.1071 370.663 180.367 307.483 199.627 329.633C212.007 343.863 199.107 388.353 167.327 418.303L167.327 418.303Z"  style="mix-blend-mode:multiply" fill="#DB8042" >
</path>
</g>
<path d="M894.823 268.545C899.165 264.018 908.083 255.167 905.356 248.202C904.797 246.776 903.334 246.404 902.143 247.354C899.603 249.383 898.946 252.753 897.828 255.665C896.391 259.41 894.584 262.622 891.906 265.628C890.151 267.597 892.97 270.476 894.823 268.545L894.823 268.545Z"   fill="#EBA152" >
</path>
<path d="M914.553 256.511C916.067 254.164 917.807 251.911 918.123 249.08C918.358 246.97 915.722 245.907 914.122 246.784C911.707 248.107 910.253 250.892 908.725 253.105C907.688 254.605 908.447 256.851 909.935 257.722C911.571 258.679 913.563 258.047 914.553 256.511L914.553 256.511Z"   fill="#EBA152" >
</path>
</svg>
